<svg xmlns="http://www.w3.org/2000/svg" width="1080" height="2160" viewBox="0 0 1080 2160">
      <path fill="#FBF7F4" fill-rule="evenodd" d="M0 0 H1080 V2160 H0 Z M90 60 H990 V634 H90 Z M90 658 H990 V1232 H90 Z M90 1256 H990 V1830 H90 Z"/>
      <rect x="87" y="57" width="906" height="580"
        fill="none" stroke="#C2A878" stroke-width="2" opacity=".55"/>
      <rect x="87" y="655" width="906" height="580"
        fill="none" stroke="#C2A878" stroke-width="2" opacity=".55"/>
      <rect x="87" y="1253" width="906" height="580"
        fill="none" stroke="#C2A878" stroke-width="2" opacity=".55"/>
      <g transform="translate(120 2075) rotate(-8) scale(1)">
      <path d="M0 0 C 30 -18 62 -22 92 -14" fill="none" stroke="#9CAE94" stroke-width="3" stroke-linecap="round"/>
      <path d="M26 -11 C 30 -28 44 -36 58 -36 C 50 -22 38 -13 26 -11 Z" fill="#9CAE94" opacity=".75"/>
      <path d="M52 -19 C 58 -34 74 -41 88 -39 C 78 -26 66 -19 52 -19 Z" fill="#9CAE94" opacity=".6"/>
      <path d="M16 -4 C 8 -20 12 -36 24 -44 C 26 -28 24 -13 16 -4 Z" fill="#9CAE94" opacity=".5"/>
      <g transform="translate(96 -16)"><ellipse cx="0" cy="-13" rx="7" ry="13" fill="#C98B93" opacity=".55" transform="rotate(0)"/><ellipse cx="0" cy="-13" rx="7" ry="13" fill="#C98B93" opacity=".55" transform="rotate(60)"/><ellipse cx="0" cy="-13" rx="7" ry="13" fill="#C98B93" opacity=".55" transform="rotate(120)"/><ellipse cx="0" cy="-13" rx="7" ry="13" fill="#C98B93" opacity=".55" transform="rotate(180)"/><ellipse cx="0" cy="-13" rx="7" ry="13" fill="#C98B93" opacity=".55" transform="rotate(240)"/><ellipse cx="0" cy="-13" rx="7" ry="13" fill="#C98B93" opacity=".55" transform="rotate(300)"/><circle r="5" fill="#C2A878"/></g>
      <g transform="translate(60 6) scale(.62)"><ellipse cx="0" cy="-13" rx="7" ry="13" fill="#C98B93" opacity=".55" transform="rotate(0)"/><ellipse cx="0" cy="-13" rx="7" ry="13" fill="#C98B93" opacity=".55" transform="rotate(60)"/><ellipse cx="0" cy="-13" rx="7" ry="13" fill="#C98B93" opacity=".55" transform="rotate(120)"/><ellipse cx="0" cy="-13" rx="7" ry="13" fill="#C98B93" opacity=".55" transform="rotate(180)"/><ellipse cx="0" cy="-13" rx="7" ry="13" fill="#C98B93" opacity=".55" transform="rotate(240)"/><ellipse cx="0" cy="-13" rx="7" ry="13" fill="#C98B93" opacity=".55" transform="rotate(300)"/><circle r="5" fill="#C2A878"/></g>
    </g>
      <g transform="translate(960 2075) rotate(8) scale(-1)">
      <path d="M0 0 C 30 -18 62 -22 92 -14" fill="none" stroke="#9CAE94" stroke-width="3" stroke-linecap="round"/>
      <path d="M26 -11 C 30 -28 44 -36 58 -36 C 50 -22 38 -13 26 -11 Z" fill="#9CAE94" opacity=".75"/>
      <path d="M52 -19 C 58 -34 74 -41 88 -39 C 78 -26 66 -19 52 -19 Z" fill="#9CAE94" opacity=".6"/>
      <path d="M16 -4 C 8 -20 12 -36 24 -44 C 26 -28 24 -13 16 -4 Z" fill="#9CAE94" opacity=".5"/>
      <g transform="translate(96 -16)"><ellipse cx="0" cy="-13" rx="7" ry="13" fill="#C98B93" opacity=".55" transform="rotate(0)"/><ellipse cx="0" cy="-13" rx="7" ry="13" fill="#C98B93" opacity=".55" transform="rotate(60)"/><ellipse cx="0" cy="-13" rx="7" ry="13" fill="#C98B93" opacity=".55" transform="rotate(120)"/><ellipse cx="0" cy="-13" rx="7" ry="13" fill="#C98B93" opacity=".55" transform="rotate(180)"/><ellipse cx="0" cy="-13" rx="7" ry="13" fill="#C98B93" opacity=".55" transform="rotate(240)"/><ellipse cx="0" cy="-13" rx="7" ry="13" fill="#C98B93" opacity=".55" transform="rotate(300)"/><circle r="5" fill="#C2A878"/></g>
      <g transform="translate(60 6) scale(.62)"><ellipse cx="0" cy="-13" rx="7" ry="13" fill="#C98B93" opacity=".55" transform="rotate(0)"/><ellipse cx="0" cy="-13" rx="7" ry="13" fill="#C98B93" opacity=".55" transform="rotate(60)"/><ellipse cx="0" cy="-13" rx="7" ry="13" fill="#C98B93" opacity=".55" transform="rotate(120)"/><ellipse cx="0" cy="-13" rx="7" ry="13" fill="#C98B93" opacity=".55" transform="rotate(180)"/><ellipse cx="0" cy="-13" rx="7" ry="13" fill="#C98B93" opacity=".55" transform="rotate(240)"/><ellipse cx="0" cy="-13" rx="7" ry="13" fill="#C98B93" opacity=".55" transform="rotate(300)"/><circle r="5" fill="#C2A878"/></g>
    </g>
    </svg>
